#!OML:ASF H:\Terrain\Patient Classification 1\Takeo\Monday\TakeoMonday.ASF
:FULLY-SPECIFIED
:DEGREES
94
root 18.1452 17.6704 -1.18569 -3.06235 -77.5773 0.879695
lowerback 5.8574 0.74686 -1.81565
upperback 1.90862 0.844329 -0.702068
thorax -1.33499 0.406985 0.239582
lowerneck -11.2678 8.50777 1.9134
upperneck -2.51124 11.0249 -4.10965
head 1.45236 5.35104 -1.08091
rclavicle -1.14301e-015 -3.18055e-015
rhumerus -7.81552 -6.38481 -33.9254
rradius 79.9312
rwrist -15.1613
rhand -36.0865 37.9093
rfingers 7.12502
rthumb -9.1933 8.12967
lclavicle -1.14301e-015 -3.18055e-015
lhumerus -28.1676 4.16875 70.3032
lradius 87.0624
lwrist 24.5011
lhand -25.978 21.1913
lfingers 7.12502
lthumb 0.567005 51.1703
rfemur 0.697404 -2.24718 11.8985
rtibia 19.7568
rfoot -13.5046 -17.9332
rtoes -10.1909
lfemur -11.4389 21.8357 -16.2693
ltibia 30.3724
lfoot -23.0339 29.0844
ltoes 21.1658
95
root 18.1481 17.657 -1.24337 -3.59052 -78.0372 1.36384
lowerback 5.89644 0.575039 -1.67531
upperback 1.94074 0.627094 -0.504384
thorax -1.3206 0.29827 0.378841
lowerneck -11.4103 8.5553 1.39505
upperneck -2.39038 11.1548 -4.27743
head 1.49852 5.40998 -1.03381
rclavicle 2.51463e-014 7.15625e-015
rhumerus -7.73544 -6.91136 -33.2419
rradius 79.9284
rwrist -14.817
rhand -36.0834 37.6904
rfingers 7.12502
rthumb -9.1903 7.91062
lclavicle 2.51463e-014 7.15625e-015
lhumerus -28.6186 4.99397 70.2993
lradius 87.2454
lwrist 24.4309
lhand -26.6891 20.9967
lfingers 7.12502
lthumb -0.119844 50.9764
rfemur 0.515551 -1.91752 12.0775
rtibia 19.8196
rfoot -13.7858 -18.0554
rtoes -10.9483
lfemur -11.5209 22.0765 -16.0643
ltibia 30.7397
lfoot -23.1368 29.0635
ltoes 21.4101
96
root 18.1543 17.6427 -1.30344 -5.31922 -78.7652 3.15363
lowerback 5.91028 0.616538 -1.78151
upperback 1.90762 0.676737 -0.451047
thorax -1.3651 0.323548 0.48936
lowerneck -11.3142 8.55181 0.530547
upperneck -2.48286 11.2405 -3.74893
head 1.36129 5.47279 -0.736933
rclavicle 2.86374e-014 3.18055e-015
rhumerus -7.9122 -7.54058 -32.3889
rradius 79.8782
rwrist -14.5411
rhand -35.6817 38.2947
rfingers 7.12502
rthumb -8.80269 8.49828
lclavicle 2.86374e-014 3.18055e-015
lhumerus -28.9399 5.45294 70.273
lradius 87.4524
lwrist 24.3796
lhand -27.3916 21.2922
lfingers 7.12502
lthumb -0.798295 51.2704
rfemur 0.0518269 -1.25645 12.0006
rtibia 20.2195
rfoot -13.9472 -17.9689
rtoes -12.0031
lfemur -11.6666 22.734 -16.1625
ltibia 31.0862
lfoot -22.5961 29.4203
ltoes 19.3848
97
root 18.1614 17.6168 -1.36631 -8.3253 -79.5156 6.18949
lowerback 5.98965 0.750382 -2.02419
upperback 1.89112 0.834719 -0.578141
thorax -1.43113 0.402471 0.482629
lowerneck -11.1567 8.51259 0.343286
upperneck -2.6715 11.2015 -3.74466
head 1.25976 5.45822 -0.720282
rclavicle 4.56584e-014 -7.15625e-015
rhumerus -8.46499 -8.42246 -31.7753
rradius 80.0807
rwrist -14.5771
rhand -35.2338 39.0763
rfingers 7.12502
rthumb -8.37041 9.26218
lclavicle 4.56584e-014 -7.15625e-015
lhumerus -29.1211 5.72491 69.9813
lradius 87.7269
lwrist 24.5642
lhand -27.1305 21.5951
lfingers 7.12502
lthumb -0.546116 51.5742
rfemur -0.472729 -0.730068 11.6882
rtibia 20.89
rfoot -14.0478 -17.7643
rtoes -13.1747
lfemur -11.7754 23.6607 -16.3996
ltibia 31.5133
lfoot -22.1094 29.4406
ltoes 17.6306
98
root 18.1704 17.5937 -1.4297 -9.79283 -80.1269 7.6366
lowerback 6.15353 0.812829 -1.78655
upperback 1.88016 0.923885 -0.705563
thorax -1.53001 0.447272 0.209771
lowerneck -11.1099 8.43796 0.8577
upperneck -2.80714 11.0439 -4.44529
head 1.28472 5.36027 -1.02896
rclavicle -4.20554e-014 8.74653e-015
rhumerus -9.22228 -9.31201 -31.2905
rradius 80.4202
rwrist -14.7252
rhand -35.6827 38.3682
rfingers 7.12502
rthumb -8.80358 8.57184
lclavicle -4.20554e-014 8.74653e-015
lhumerus -29.2785 5.72353 69.5379
lradius 87.9882
lwrist 24.837
lhand -26.6842 21.5387
lfingers 7.12502
lthumb -0.115047 51.5185
rfemur -1.0393 -0.291231 11.7078
rtibia 21.8448
rfoot -14.6784 -17.4427
rtoes -12.6991
lfemur -11.9076 24.4951 -16.2345
ltibia 31.9953
lfoot -21.6811 29.1741
ltoes 17.4351
99
root 18.1801 17.5719 -1.4948 -11.1008 -80.7468 8.94194
lowerback 6.26619 0.784864 -1.3498
upperback 1.8802 0.904399 -0.945383
thorax -1.58186 0.437018 -0.281579
lowerneck -11.3094 8.46994 1.45721
upperneck -2.66731 11.0285 -5.02761
head 1.44331 5.32867 -1.29437
rclavicle -1.99903e-014 -1.98785e-016
rhumerus -9.84336 -10.0347 -31.0619
rradius 80.6159
rwrist -14.7066
rhand -36.4248 38.066
rfingers 7.12502
rthumb -9.51968 8.30103
lclavicle -1.99903e-014 -1.98785e-016
lhumerus -29.3699 5.81175 68.7868
lradius 88.0122
lwrist 25.2214
lhand -26.5462 21.4292
lfingers 7.12502
lthumb 0.0181827 51.4089
rfemur -1.79351 0.280482 11.7809
rtibia 22.9974
rfoot -15.6973 -17.0091
rtoes -11.0356
lfemur -12.08 25.3565 -15.9951
ltibia 32.4776
lfoot -21.1468 28.8991
ltoes 17.2997
100
root 18.1872 17.552 -1.5575 -13.2606 -81.1843 11.1063
lowerback 6.29259 0.655099 -1.18446
upperback 1.89273 0.736191 -1.13209
thorax -1.57826 0.352357 -0.553722
lowerneck -11.2744 8.58659 1.65712
upperneck -2.68783 11.1621 -5.23839
head 1.46253 5.38901 -1.38678
rclavicle -2.34193e-014 -9.93923e-016
rhumerus -10.1067 -10.6467 -30.8294
rradius 80.5056
rwrist -14.6454
rhand -37.1663 38.1002
rfingers 7.12502
rthumb -10.2351 8.3692
lclavicle -2.34193e-014 -9.93923e-016
lhumerus -29.4126 6.56997 68.1594
lradius 87.6827
lwrist 25.3458
lhand -26.4161 21.1503
lfingers 7.12502
lthumb 0.143871 51.13
rfemur -2.54603 0.641633 11.6673
rtibia 24.1616
rfoot -16.6001 -16.532
rtoes -9.86383
lfemur -12.2888 26.1524 -15.9276
ltibia 32.9953
lfoot -20.6497 28.5176
ltoes 17.2349
